<?xml version="1.0" encoding="UTF-8" standalone="no"?>
<!DOCTYPE svg PUBLIC "-//W3C//DTD SVG 1.1//EN"
 "http://www.w3.org/Graphics/SVG/1.1/DTD/svg11.dtd">
<!-- Generated by graphviz version 12.2.1 (20241206.2353)
 -->
<!-- Title: AtsSequence Pages: 1 -->
<svg width="565pt" height="757pt"
 viewBox="0.00 0.00 564.70 756.95" xmlns="http://www.w3.org/2000/svg" xmlns:xlink="http://www.w3.org/1999/xlink">
<g id="graph0" class="graph" transform="scale(1 1) rotate(0) translate(21.6 735.35)">
<title>AtsSequence</title>
<polygon fill="white" stroke="none" points="-21.6,21.6 -21.6,-735.35 543.1,-735.35 543.1,21.6 -21.6,21.6"/>
<text text-anchor="middle" x="260.75" y="-689.8" font-family="Helvetica,sans-Serif" font-size="21.00">ATS — Candidate Application and Pipeline Sequence</text>
<!-- login -->
<g id="node1" class="node">
<title>login</title>
<path fill="#dbeafe" stroke="#334155" d="M379.89,-684C379.89,-684 141.61,-684 141.61,-684 135.61,-684 129.6,-678 129.6,-672 129.6,-672 129.6,-660 129.6,-660 129.6,-654 135.6,-648 141.6,-648 141.6,-648 379.89,-648 379.89,-648 385.89,-648 391.89,-654 391.89,-660 391.89,-660 391.89,-672 391.89,-672 391.89,-678 385.89,-684 379.89,-684"/>
<text text-anchor="middle" x="260.75" y="-662.12" font-family="Helvetica,sans-Serif" font-size="10.00">1 &#160;Candidate authenticates and receives a signed JWT</text>
</g>
<!-- browse -->
<g id="node2" class="node">
<title>browse</title>
<path fill="#f8fafc" stroke="#334155" d="M351.02,-612C351.02,-612 170.48,-612 170.48,-612 164.48,-612 158.48,-606 158.48,-600 158.48,-600 158.48,-588 158.48,-588 158.48,-582 164.48,-576 170.48,-576 170.48,-576 351.02,-576 351.02,-576 357.02,-576 363.02,-582 363.02,-588 363.02,-588 363.02,-600 363.02,-600 363.02,-606 357.02,-612 351.02,-612"/>
<text text-anchor="middle" x="260.75" y="-590.12" font-family="Helvetica,sans-Serif" font-size="10.00">2 &#160;React loads a pageable public job view</text>
</g>
<!-- login&#45;&gt;browse -->
<g id="edge1" class="edge">
<title>login&#45;&gt;browse</title>
<path fill="none" stroke="#475569" stroke-width="1.3" d="M260.75,-647.7C260.75,-640.49 260.75,-631.93 260.75,-623.82"/>
<polygon fill="#475569" stroke="#475569" stroke-width="1.3" points="264.25,-624.07 260.75,-614.07 257.25,-624.07 264.25,-624.07"/>
</g>
<!-- submit -->
<g id="node3" class="node">
<title>submit</title>
<path fill="#f8fafc" stroke="#334155" d="M354.77,-540C354.77,-540 166.73,-540 166.73,-540 160.73,-540 154.73,-534 154.73,-528 154.73,-528 154.73,-516 154.73,-516 154.73,-510 160.73,-504 166.73,-504 166.73,-504 354.77,-504 354.77,-504 360.77,-504 366.77,-510 366.77,-516 366.77,-516 366.77,-528 366.77,-528 366.77,-534 360.77,-540 354.77,-540"/>
<text text-anchor="middle" x="260.75" y="-518.12" font-family="Helvetica,sans-Serif" font-size="10.00">3 &#160;Candidate submits cover letter + resume</text>
</g>
<!-- browse&#45;&gt;submit -->
<g id="edge2" class="edge">
<title>browse&#45;&gt;submit</title>
<path fill="none" stroke="#475569" stroke-width="1.3" d="M260.75,-575.7C260.75,-568.49 260.75,-559.93 260.75,-551.82"/>
<polygon fill="#475569" stroke="#475569" stroke-width="1.3" points="264.25,-552.07 260.75,-542.07 257.25,-552.07 264.25,-552.07"/>
</g>
<!-- authorize -->
<g id="node4" class="node">
<title>authorize</title>
<path fill="#f8fafc" stroke="#334155" d="M363.39,-468C363.39,-468 158.11,-468 158.11,-468 152.11,-468 146.11,-462 146.11,-456 146.11,-456 146.11,-444 146.11,-444 146.11,-438 152.11,-432 158.11,-432 158.11,-432 363.39,-432 363.39,-432 369.39,-432 375.39,-438 375.39,-444 375.39,-444 375.39,-456 375.39,-456 375.39,-462 369.39,-468 363.39,-468"/>
<text text-anchor="middle" x="260.75" y="-446.12" font-family="Helvetica,sans-Serif" font-size="10.00">4 &#160;Spring Security authorizes CANDIDATE role</text>
</g>
<!-- submit&#45;&gt;authorize -->
<g id="edge3" class="edge">
<title>submit&#45;&gt;authorize</title>
<path fill="none" stroke="#475569" stroke-width="1.3" d="M260.75,-503.7C260.75,-496.49 260.75,-487.93 260.75,-479.82"/>
<polygon fill="#475569" stroke="#475569" stroke-width="1.3" points="264.25,-480.07 260.75,-470.07 257.25,-480.07 264.25,-480.07"/>
</g>
<!-- validate -->
<g id="node5" class="node">
<title>validate</title>
<path fill="#f8fafc" stroke="#334155" d="M377.64,-396C377.64,-396 143.86,-396 143.86,-396 137.86,-396 131.85,-390 131.85,-384 131.85,-384 131.85,-372 131.85,-372 131.85,-366 137.85,-360 143.85,-360 143.85,-360 377.64,-360 377.64,-360 383.64,-360 389.64,-366 389.64,-372 389.64,-372 389.64,-384 389.64,-384 389.64,-390 383.64,-396 377.64,-396"/>
<text text-anchor="middle" x="260.75" y="-374.12" font-family="Helvetica,sans-Serif" font-size="10.00">5 &#160;Verify open job, candidate identity, and no duplicate</text>
</g>
<!-- authorize&#45;&gt;validate -->
<g id="edge4" class="edge">
<title>authorize&#45;&gt;validate</title>
<path fill="none" stroke="#475569" stroke-width="1.3" d="M260.75,-431.7C260.75,-424.49 260.75,-415.93 260.75,-407.82"/>
<polygon fill="#475569" stroke="#475569" stroke-width="1.3" points="264.25,-408.07 260.75,-398.07 257.25,-408.07 264.25,-408.07"/>
</g>
<!-- resume -->
<g id="node6" class="node">
<title>resume</title>
<path fill="#f8fafc" stroke="#334155" d="M322.52,-324C322.52,-324 198.98,-324 198.98,-324 192.98,-324 186.98,-318 186.98,-312 186.98,-312 186.98,-300 186.98,-300 186.98,-294 192.98,-288 198.98,-288 198.98,-288 322.52,-288 322.52,-288 328.52,-288 334.52,-294 334.52,-300 334.52,-300 334.52,-312 334.52,-312 334.52,-318 328.52,-324 322.52,-324"/>
<text text-anchor="middle" x="260.75" y="-302.12" font-family="Helvetica,sans-Serif" font-size="10.00">6 &#160;Validate and store resume</text>
</g>
<!-- validate&#45;&gt;resume -->
<g id="edge5" class="edge">
<title>validate&#45;&gt;resume</title>
<path fill="none" stroke="#475569" stroke-width="1.3" d="M260.75,-359.7C260.75,-352.49 260.75,-343.93 260.75,-335.82"/>
<polygon fill="#475569" stroke="#475569" stroke-width="1.3" points="264.25,-336.07 260.75,-326.07 257.25,-336.07 264.25,-336.07"/>
</g>
<!-- persist -->
<g id="node7" class="node">
<title>persist</title>
<path fill="#dcfce7" stroke="#334155" d="M361.14,-252C361.14,-252 160.36,-252 160.36,-252 154.36,-252 148.36,-246 148.36,-240 148.36,-240 148.36,-228 148.36,-228 148.36,-222 154.36,-216 160.36,-216 160.36,-216 361.14,-216 361.14,-216 367.14,-216 373.14,-222 373.14,-228 373.14,-228 373.14,-240 373.14,-240 373.14,-246 367.14,-252 361.14,-252"/>
<text text-anchor="middle" x="260.75" y="-230.12" font-family="Helvetica,sans-Serif" font-size="10.00">7 &#160;Persist application at the first pipeline stage</text>
</g>
<!-- resume&#45;&gt;persist -->
<g id="edge6" class="edge">
<title>resume&#45;&gt;persist</title>
<path fill="none" stroke="#475569" stroke-width="1.3" d="M260.75,-287.7C260.75,-280.49 260.75,-271.93 260.75,-263.82"/>
<polygon fill="#475569" stroke="#475569" stroke-width="1.3" points="264.25,-264.07 260.75,-254.07 257.25,-264.07 264.25,-264.07"/>
</g>
<!-- review -->
<g id="node8" class="node">
<title>review</title>
<path fill="#dbeafe" stroke="#334155" d="M349.89,-180C349.89,-180 171.61,-180 171.61,-180 165.61,-180 159.61,-174 159.61,-168 159.61,-168 159.61,-156 159.61,-156 159.61,-150 165.61,-144 171.61,-144 171.61,-144 349.89,-144 349.89,-144 355.89,-144 361.89,-150 361.89,-156 361.89,-156 361.89,-168 361.89,-168 361.89,-174 355.89,-180 349.89,-180"/>
<text text-anchor="middle" x="260.75" y="-158.12" font-family="Helvetica,sans-Serif" font-size="10.00">8 &#160;Recruiter loads owned job applications</text>
</g>
<!-- persist&#45;&gt;review -->
<g id="edge7" class="edge">
<title>persist&#45;&gt;review</title>
<path fill="none" stroke="#475569" stroke-width="1.3" d="M260.75,-215.7C260.75,-208.49 260.75,-199.93 260.75,-191.82"/>
<polygon fill="#475569" stroke="#475569" stroke-width="1.3" points="264.25,-192.07 260.75,-182.07 257.25,-192.07 264.25,-192.07"/>
</g>
<!-- owner -->
<g id="node9" class="node">
<title>owner</title>
<path fill="#f8fafc" stroke="#334155" d="M379.14,-108C379.14,-108 142.36,-108 142.36,-108 136.36,-108 130.35,-102 130.35,-96 130.35,-96 130.35,-84 130.35,-84 130.35,-78 136.35,-72 142.35,-72 142.35,-72 379.14,-72 379.14,-72 385.14,-72 391.14,-78 391.14,-84 391.14,-84 391.14,-96 391.14,-96 391.14,-102 385.14,-108 379.14,-108"/>
<text text-anchor="middle" x="260.75" y="-86.12" font-family="Helvetica,sans-Serif" font-size="10.00">9 &#160;Service verifies recruiter ownership and target stage</text>
</g>
<!-- review&#45;&gt;owner -->
<g id="edge8" class="edge">
<title>review&#45;&gt;owner</title>
<path fill="none" stroke="#475569" stroke-width="1.3" d="M260.75,-143.7C260.75,-136.49 260.75,-127.93 260.75,-119.82"/>
<polygon fill="#475569" stroke="#475569" stroke-width="1.3" points="264.25,-120.07 260.75,-110.07 257.25,-120.07 264.25,-120.07"/>
</g>
<!-- move -->
<g id="node10" class="node">
<title>move</title>
<path fill="#dcfce7" stroke="#334155" d="M359.64,-36C359.64,-36 161.86,-36 161.86,-36 155.86,-36 149.86,-30 149.86,-24 149.86,-24 149.86,-12 149.86,-12 149.86,-6 155.86,0 161.86,0 161.86,0 359.64,0 359.64,0 365.64,0 371.64,-6 371.64,-12 371.64,-12 371.64,-24 371.64,-24 371.64,-30 365.64,-36 359.64,-36"/>
<text text-anchor="middle" x="260.75" y="-14.12" font-family="Helvetica,sans-Serif" font-size="10.00">10 &#160;Move application and return recruiter DTO</text>
</g>
<!-- owner&#45;&gt;move -->
<g id="edge9" class="edge">
<title>owner&#45;&gt;move</title>
<path fill="none" stroke="#475569" stroke-width="1.3" d="M260.75,-71.7C260.75,-64.49 260.75,-55.93 260.75,-47.82"/>
<polygon fill="#475569" stroke="#475569" stroke-width="1.3" points="264.25,-48.07 260.75,-38.07 257.25,-48.07 264.25,-48.07"/>
</g>
</g>
</svg>
