<?xml version="1.0" encoding="UTF-8" standalone="no"?>
<!DOCTYPE svg PUBLIC "-//W3C//DTD SVG 1.1//EN"
 "http://www.w3.org/Graphics/SVG/1.1/DTD/svg11.dtd">
<!-- Generated by graphviz version 12.2.1 (20241206.2353)
 -->
<!-- Title: AtsArchitecture Pages: 1 -->
<svg width="1400pt" height="457pt"
 viewBox="0.00 0.00 1399.92 456.66" xmlns="http://www.w3.org/2000/svg" xmlns:xlink="http://www.w3.org/1999/xlink">
<g id="graph0" class="graph" transform="scale(1 1) rotate(0) translate(25.2 431.46)">
<title>AtsArchitecture</title>
<polygon fill="white" stroke="none" points="-25.2,25.2 -25.2,-431.46 1374.72,-431.46 1374.72,25.2 -25.2,25.2"/>
<text text-anchor="middle" x="674.76" y="-381.36" font-family="Helvetica,sans-Serif" font-size="22.00">ATS Recruiting Portal — System Architecture</text>
<g id="clust1" class="cluster">
<title>cluster_api</title>
<path fill="#eff6ff" stroke="#93c5fd" d="M516.09,-186.38C516.09,-186.38 1098.48,-186.38 1098.48,-186.38 1104.48,-186.38 1110.48,-192.38 1110.48,-198.38 1110.48,-198.38 1110.48,-343.38 1110.48,-343.38 1110.48,-349.38 1104.48,-355.38 1098.48,-355.38 1098.48,-355.38 516.09,-355.38 516.09,-355.38 510.09,-355.38 504.09,-349.38 504.09,-343.38 504.09,-343.38 504.09,-198.38 504.09,-198.38 504.09,-192.38 510.09,-186.38 516.09,-186.38"/>
<text text-anchor="middle" x="807.28" y="-330.48" font-family="Helvetica,sans-Serif" font-size="22.00">Java 21 / Spring Boot 3 API</text>
</g>
<!-- visitor -->
<g id="node1" class="node">
<title>visitor</title>
<path fill="#e0f2fe" stroke="#334155" stroke-width="1.4" d="M155.67,-273.38C155.67,-273.38 12,-273.38 12,-273.38 6,-273.38 0,-267.38 0,-261.38 0,-261.38 0,-249.38 0,-249.38 0,-243.38 6,-237.38 12,-237.38 12,-237.38 155.67,-237.38 155.67,-237.38 161.67,-237.38 167.67,-243.38 167.67,-249.38 167.67,-249.38 167.67,-261.38 167.67,-261.38 167.67,-267.38 161.67,-273.38 155.67,-273.38"/>
<text text-anchor="middle" x="83.84" y="-250.93" font-family="Helvetica,sans-Serif" font-size="11.00">Visitor / Candidate / Recruiter</text>
</g>
<!-- web -->
<g id="node2" class="node">
<title>web</title>
<path fill="#dbeafe" stroke="#334155" stroke-width="1.4" d="M390.34,-276.02C390.34,-276.02 266.92,-276.02 266.92,-276.02 260.92,-276.02 254.92,-270.02 254.92,-264.02 254.92,-264.02 254.92,-246.74 254.92,-246.74 254.92,-240.74 260.92,-234.74 266.92,-234.74 266.92,-234.74 390.34,-234.74 390.34,-234.74 396.34,-234.74 402.34,-240.74 402.34,-246.74 402.34,-246.74 402.34,-264.02 402.34,-264.02 402.34,-270.02 396.34,-276.02 390.34,-276.02"/>
<text text-anchor="middle" x="328.63" y="-256.93" font-family="Helvetica,sans-Serif" font-size="11.00">Nginx + React 19</text>
<text text-anchor="middle" x="328.63" y="-244.93" font-family="Helvetica,sans-Serif" font-size="11.00">TypeScript · Vite · Router</text>
</g>
<!-- visitor&#45;&gt;web -->
<g id="edge1" class="edge">
<title>visitor&#45;&gt;web</title>
<path fill="none" stroke="#475569" stroke-width="1.4" d="M168.05,-255.38C192.13,-255.38 218.43,-255.38 242.61,-255.38"/>
<polygon fill="#475569" stroke="#475569" stroke-width="1.4" points="242.55,-258.88 252.55,-255.38 242.55,-251.88 242.55,-258.88"/>
<text text-anchor="middle" x="211.3" y="-256.58" font-family="Helvetica,sans-Serif" font-size="9.00">HTTPS</text>
</g>
<!-- auth -->
<g id="node3" class="node">
<title>auth</title>
<path fill="#fef3c7" stroke="#334155" stroke-width="1.4" d="M599.51,-276.02C599.51,-276.02 524.09,-276.02 524.09,-276.02 518.09,-276.02 512.09,-270.02 512.09,-264.02 512.09,-264.02 512.09,-246.74 512.09,-246.74 512.09,-240.74 518.09,-234.74 524.09,-234.74 524.09,-234.74 599.51,-234.74 599.51,-234.74 605.51,-234.74 611.51,-240.74 611.51,-246.74 611.51,-246.74 611.51,-264.02 611.51,-264.02 611.51,-270.02 605.51,-276.02 599.51,-276.02"/>
<text text-anchor="middle" x="561.8" y="-256.93" font-family="Helvetica,sans-Serif" font-size="11.00">Spring Security</text>
<text text-anchor="middle" x="561.8" y="-244.93" font-family="Helvetica,sans-Serif" font-size="11.00">JWT + RBAC</text>
</g>
<!-- web&#45;&gt;auth -->
<g id="edge2" class="edge">
<title>web&#45;&gt;auth</title>
<path fill="none" stroke="#475569" stroke-width="1.4" d="M402.77,-255.38C434.05,-255.38 470.13,-255.38 499.92,-255.38"/>
<polygon fill="#475569" stroke="#475569" stroke-width="1.4" points="499.73,-258.88 509.73,-255.38 499.73,-251.88 499.73,-258.88"/>
<text text-anchor="middle" x="457.22" y="-256.58" font-family="Helvetica,sans-Serif" font-size="9.00">REST + JWT</text>
</g>
<!-- jobs -->
<g id="node4" class="node">
<title>jobs</title>
<path fill="#ffffff" stroke="#334155" stroke-width="1.4" d="M808.93,-317.02C808.93,-317.02 682.51,-317.02 682.51,-317.02 676.51,-317.02 670.51,-311.02 670.51,-305.02 670.51,-305.02 670.51,-287.74 670.51,-287.74 670.51,-281.74 676.51,-275.74 682.51,-275.74 682.51,-275.74 808.93,-275.74 808.93,-275.74 814.93,-275.74 820.93,-281.74 820.93,-287.74 820.93,-287.74 820.93,-305.02 820.93,-305.02 820.93,-311.02 814.93,-317.02 808.93,-317.02"/>
<text text-anchor="middle" x="745.72" y="-297.93" font-family="Helvetica,sans-Serif" font-size="11.00">Job Service</text>
<text text-anchor="middle" x="745.72" y="-285.93" font-family="Helvetica,sans-Serif" font-size="11.00">filters · ownership · stages</text>
</g>
<!-- auth&#45;&gt;jobs -->
<g id="edge3" class="edge">
<title>auth&#45;&gt;jobs</title>
<path fill="none" stroke="#475569" stroke-width="1.4" d="M611.55,-266.37C626.03,-269.63 642.35,-273.31 658.47,-276.94"/>
<polygon fill="#475569" stroke="#475569" stroke-width="1.4" points="657.55,-280.32 668.07,-279.11 659.09,-273.49 657.55,-280.32"/>
</g>
<!-- apps -->
<g id="node5" class="node">
<title>apps</title>
<path fill="#ffffff" stroke="#334155" stroke-width="1.4" d="M794.68,-236.02C794.68,-236.02 696.76,-236.02 696.76,-236.02 690.76,-236.02 684.76,-230.02 684.76,-224.02 684.76,-224.02 684.76,-206.74 684.76,-206.74 684.76,-200.74 690.76,-194.74 696.76,-194.74 696.76,-194.74 794.68,-194.74 794.68,-194.74 800.68,-194.74 806.68,-200.74 806.68,-206.74 806.68,-206.74 806.68,-224.02 806.68,-224.02 806.68,-230.02 800.68,-236.02 794.68,-236.02"/>
<text text-anchor="middle" x="745.72" y="-216.93" font-family="Helvetica,sans-Serif" font-size="11.00">Application Service</text>
<text text-anchor="middle" x="745.72" y="-204.93" font-family="Helvetica,sans-Serif" font-size="11.00">apply · move · notes</text>
</g>
<!-- auth&#45;&gt;apps -->
<g id="edge4" class="edge">
<title>auth&#45;&gt;apps</title>
<path fill="none" stroke="#475569" stroke-width="1.4" d="M611.55,-244.66C630.38,-240.52 652.31,-235.7 672.87,-231.18"/>
<polygon fill="#475569" stroke="#475569" stroke-width="1.4" points="673.37,-234.65 682.38,-229.09 671.87,-227.82 673.37,-234.65"/>
</g>
<!-- search -->
<g id="node6" class="node">
<title>search</title>
<path fill="#ffffff" stroke="#334155" stroke-width="1.4" d="M1090.48,-317.02C1090.48,-317.02 966.31,-317.02 966.31,-317.02 960.31,-317.02 954.31,-311.02 954.31,-305.02 954.31,-305.02 954.31,-287.74 954.31,-287.74 954.31,-281.74 960.31,-275.74 966.31,-275.74 966.31,-275.74 1090.48,-275.74 1090.48,-275.74 1096.48,-275.74 1102.48,-281.74 1102.48,-287.74 1102.48,-287.74 1102.48,-305.02 1102.48,-305.02 1102.48,-311.02 1096.48,-317.02 1090.48,-317.02"/>
<text text-anchor="middle" x="1028.39" y="-297.93" font-family="Helvetica,sans-Serif" font-size="11.00">Search Service</text>
<text text-anchor="middle" x="1028.39" y="-285.93" font-family="Helvetica,sans-Serif" font-size="11.00">weighted multi&#45;field query</text>
</g>
<!-- jobs&#45;&gt;search -->
<g id="edge8" class="edge">
<title>jobs&#45;&gt;search</title>
<path fill="none" stroke="#475569" stroke-width="1.4" d="M821.2,-296.38C858.35,-296.38 903.47,-296.38 942.02,-296.38"/>
<polygon fill="#475569" stroke="#475569" stroke-width="1.4" points="941.9,-299.88 951.9,-296.38 941.9,-292.88 941.9,-299.88"/>
<text text-anchor="middle" x="884.06" y="-297.58" font-family="Helvetica,sans-Serif" font-size="9.00">text query</text>
</g>
<!-- postgres -->
<g id="node7" class="node">
<title>postgres</title>
<path fill="#dcfce7" stroke="#334155" stroke-width="1.4" d="M1347.65,-256.35C1347.65,-260.02 1320.49,-263.01 1287.06,-263.01 1253.63,-263.01 1226.48,-260.02 1226.48,-256.35 1226.48,-256.35 1226.48,-196.41 1226.48,-196.41 1226.48,-192.74 1253.63,-189.75 1287.06,-189.75 1320.49,-189.75 1347.65,-192.74 1347.65,-196.41 1347.65,-196.41 1347.65,-256.35 1347.65,-256.35"/>
<path fill="none" stroke="#334155" stroke-width="1.4" d="M1347.65,-256.35C1347.65,-252.68 1320.49,-249.69 1287.06,-249.69 1253.63,-249.69 1226.48,-252.68 1226.48,-256.35"/>
<text text-anchor="middle" x="1287.06" y="-233.93" font-family="Helvetica,sans-Serif" font-size="11.00">PostgreSQL</text>
<text text-anchor="middle" x="1287.06" y="-221.93" font-family="Helvetica,sans-Serif" font-size="11.00">users · jobs · stages</text>
<text text-anchor="middle" x="1287.06" y="-209.93" font-family="Helvetica,sans-Serif" font-size="11.00">applications · notes</text>
</g>
<!-- jobs&#45;&gt;postgres -->
<g id="edge5" class="edge">
<title>jobs&#45;&gt;postgres</title>
<path fill="none" stroke="#475569" stroke-width="1.4" d="M816.09,-275.33C854.38,-264.6 903,-252.41 947.18,-245.63 1038.53,-231.6 1145.14,-227.54 1214.03,-226.49"/>
<polygon fill="#475569" stroke="#475569" stroke-width="1.4" points="1213.94,-230 1223.9,-226.36 1213.85,-223 1213.94,-230"/>
<text text-anchor="middle" x="1028.39" y="-246.83" font-family="Helvetica,sans-Serif" font-size="9.00">JPA / Flyway</text>
</g>
<!-- apps&#45;&gt;postgres -->
<g id="edge6" class="edge">
<title>apps&#45;&gt;postgres</title>
<path fill="none" stroke="#475569" stroke-width="1.4" d="M807,-196.73C846.44,-185.53 899.35,-172.36 947.18,-166.63 1019.24,-157.99 1038.86,-154.86 1110.48,-166.63 1145.71,-172.42 1183.36,-184.4 1214.73,-196.13"/>
<polygon fill="#475569" stroke="#475569" stroke-width="1.4" points="1213.41,-199.37 1224,-199.67 1215.91,-192.83 1213.41,-199.37"/>
<text text-anchor="middle" x="1028.39" y="-167.83" font-family="Helvetica,sans-Serif" font-size="9.00">transaction</text>
</g>
<!-- resumes -->
<g id="node9" class="node">
<title>resumes</title>
<path fill="#cffafe" stroke="#334155" stroke-width="1.4" d="M1109.6,-51.6C1109.6,-54.45 1073.2,-56.76 1028.39,-56.76 983.58,-56.76 947.18,-54.45 947.18,-51.6 947.18,-51.6 947.18,-5.16 947.18,-5.16 947.18,-2.31 983.58,0 1028.39,0 1073.2,0 1109.6,-2.31 1109.6,-5.16 1109.6,-5.16 1109.6,-51.6 1109.6,-51.6"/>
<path fill="none" stroke="#334155" stroke-width="1.4" d="M1109.6,-51.6C1109.6,-48.75 1073.2,-46.44 1028.39,-46.44 983.58,-46.44 947.18,-48.75 947.18,-51.6"/>
<text text-anchor="middle" x="1028.39" y="-29.93" font-family="Helvetica,sans-Serif" font-size="11.00">Resume Storage</text>
<text text-anchor="middle" x="1028.39" y="-17.93" font-family="Helvetica,sans-Serif" font-size="11.00">Docker volume / object store</text>
</g>
<!-- apps&#45;&gt;resumes -->
<g id="edge7" class="edge">
<title>apps&#45;&gt;resumes</title>
<path fill="none" stroke="#475569" stroke-width="1.4" d="M759.97,-194.37C777.57,-167.98 811.03,-122.86 849.93,-95.63 875.54,-77.7 906.55,-63.82 935.44,-53.45"/>
<polygon fill="#475569" stroke="#475569" stroke-width="1.4" points="936.51,-56.78 944.81,-50.2 934.22,-50.17 936.51,-56.78"/>
<text text-anchor="middle" x="884.06" y="-96.83" font-family="Helvetica,sans-Serif" font-size="9.00">validated upload</text>
</g>
<!-- search&#45;&gt;postgres -->
<g id="edge10" class="edge">
<title>search&#45;&gt;postgres</title>
<path fill="none" stroke="#475569" stroke-width="1.4" d="M1102.94,-276.32C1138.08,-266.74 1179.96,-255.32 1214.79,-245.82"/>
<polygon fill="#475569" stroke="#475569" stroke-width="1.4" points="1215.55,-249.24 1224.27,-243.23 1213.7,-242.49 1215.55,-249.24"/>
<text text-anchor="middle" x="1167.1" y="-266.77" font-family="Helvetica,sans-Serif" font-size="9.00">hydrate IDs</text>
</g>
<!-- elastic -->
<g id="node8" class="node">
<title>elastic</title>
<path fill="#ede9fe" stroke="#334155" stroke-width="1.4" d="M1349.52,-370.6C1349.52,-373.45 1321.52,-375.76 1287.06,-375.76 1252.6,-375.76 1224.6,-373.45 1224.6,-370.6 1224.6,-370.6 1224.6,-324.16 1224.6,-324.16 1224.6,-321.31 1252.6,-319 1287.06,-319 1321.52,-319 1349.52,-321.31 1349.52,-324.16 1349.52,-324.16 1349.52,-370.6 1349.52,-370.6"/>
<path fill="none" stroke="#334155" stroke-width="1.4" d="M1349.52,-370.6C1349.52,-367.75 1321.52,-365.44 1287.06,-365.44 1252.6,-365.44 1224.6,-367.75 1224.6,-370.6"/>
<text text-anchor="middle" x="1287.06" y="-348.93" font-family="Helvetica,sans-Serif" font-size="11.00">Elasticsearch</text>
<text text-anchor="middle" x="1287.06" y="-336.93" font-family="Helvetica,sans-Serif" font-size="11.00">job search projection</text>
</g>
<!-- search&#45;&gt;elastic -->
<g id="edge9" class="edge">
<title>search&#45;&gt;elastic</title>
<path fill="none" stroke="#475569" stroke-width="1.4" d="M1102.94,-310.99C1137.26,-317.81 1178.02,-325.91 1212.36,-332.74"/>
<polygon fill="#475569" stroke="#475569" stroke-width="1.4" points="1211.65,-336.16 1222.14,-334.68 1213.01,-329.3 1211.65,-336.16"/>
<text text-anchor="middle" x="1167.1" y="-329.15" font-family="Helvetica,sans-Serif" font-size="9.00">index / search</text>
</g>
</g>
</svg>
